<?xml version="1.0" standalone="no"?><!DOCTYPE svg PUBLIC "-//W3C//DTD SVG 1.1//EN" "http://www.w3.org/Graphics/SVG/1.1/DTD/svg11.dtd"><svg t="1628240715714" class="icon" viewBox="0 0 1024 1024" version="1.1" xmlns="http://www.w3.org/2000/svg" p-id="1448" xmlns:xlink="http://www.w3.org/1999/xlink" width="200" height="200"><defs><style type="text/css"></style></defs><path d="M1001.946877 854.926059H22.053123V169.073941h979.893754v685.852118" fill="#FFFFFF" p-id="1449"></path><path d="M1001.946877 391.075377H22.053123V169.073941h979.893754v222.001436" fill="#CCCCCC" p-id="1450"></path><path d="M1001.946877 876.979182H22.053123c-12.49677 0-22.053123-9.556353-22.053123-22.053123V169.073941c0-12.49677 9.556353-22.053123 22.053123-22.053123h979.893754c12.49677 0 22.053123 9.556353 22.053123 22.053123v685.852118c0 12.49677-9.556353 22.053123-22.053123 22.053123zM44.106246 832.872936h935.787508V191.127064H44.106246v641.745872z" fill="#888888" p-id="1451"></path><path d="M1001.946877 410.923187H22.053123c-12.49677 0-22.053123-9.556353-22.053123-22.053122V169.073941c0-12.49677 9.556353-22.053123 22.053123-22.053123h979.893754c12.49677 0 22.053123 9.556353 22.053123 22.053123v219.796124c0 12.49677-9.556353 22.053123-22.053123 22.053122zM44.106246 366.816942h935.787508V191.127064H44.106246v175.689878z" fill="#888888" p-id="1452"></path></svg>